<svg width="119" height="23" viewBox="0 0 119 23" fill="none" xmlns="http://www.w3.org/2000/svg">
<path d="M6.47009 18.312C4.90209 18.312 3.55809 17.944 2.43809 17.208C1.33409 16.472 0.558094 15.464 0.110094 14.184L2.03009 13.08C2.68609 15.112 4.18209 16.128 6.51809 16.128C7.67009 16.128 8.55009 15.896 9.15809 15.432C9.76609 14.952 10.0701 14.32 10.0701 13.536C10.0701 12.736 9.76609 12.136 9.15809 11.736C8.55009 11.336 7.53409 10.912 6.11009 10.464C5.40609 10.24 4.87009 10.064 4.50209 9.936C4.13409 9.792 3.67009 9.584 3.11009 9.312C2.56609 9.024 2.15809 8.736 1.88609 8.448C1.61409 8.144 1.36609 7.752 1.14209 7.272C0.934094 6.792 0.830094 6.248 0.830094 5.64C0.830094 4.184 1.34209 3.032 2.36609 2.184C3.39009 1.32 4.63809 0.887999 6.11009 0.887999C7.43809 0.887999 8.59009 1.224 9.56609 1.896C10.5581 2.568 11.3021 3.456 11.7981 4.56L9.92609 5.64C9.20609 3.912 7.93409 3.048 6.11009 3.048C5.19809 3.048 4.46209 3.272 3.90209 3.72C3.34209 4.168 3.06209 4.776 3.06209 5.544C3.06209 6.28 3.32609 6.84 3.85409 7.224C4.38209 7.608 5.29409 8.008 6.59009 8.424C7.05409 8.568 7.38209 8.672 7.57409 8.736C7.76609 8.8 8.06209 8.912 8.46209 9.072C8.87809 9.232 9.18209 9.36 9.37409 9.456C9.56609 9.552 9.82209 9.688 10.1421 9.864C10.4781 10.04 10.7261 10.208 10.8861 10.368C11.0461 10.528 11.2301 10.728 11.4381 10.968C11.6621 11.192 11.8221 11.424 11.9181 11.664C12.0141 11.904 12.0941 12.184 12.1581 12.504C12.2381 12.808 12.2781 13.136 12.2781 13.488C12.2781 14.96 11.7421 16.136 10.6701 17.016C9.59809 17.88 8.19809 18.312 6.47009 18.312ZM21.3291 5.688C23.0091 5.688 24.4411 6.304 25.6251 7.536C26.8091 8.752 27.4011 10.24 27.4011 12C27.4011 13.76 26.8091 15.256 25.6251 16.488C24.4411 17.704 23.0091 18.312 21.3291 18.312C19.3451 18.312 17.8331 17.52 16.7931 15.936V22.8H14.7051V6H16.7931V8.064C17.8331 6.48 19.3451 5.688 21.3291 5.688ZM21.0651 16.296C22.2651 16.296 23.2731 15.888 24.0891 15.072C24.9051 14.24 25.3131 13.216 25.3131 12C25.3131 10.784 24.9051 9.768 24.0891 8.952C23.2731 8.12 22.2651 7.704 21.0651 7.704C19.8491 7.704 18.8331 8.12 18.0171 8.952C17.2011 9.768 16.7931 10.784 16.7931 12C16.7931 13.216 17.2011 14.24 18.0171 15.072C18.8331 15.888 19.8491 16.296 21.0651 16.296ZM40.0206 16.488C38.7886 17.704 37.2926 18.312 35.5326 18.312C33.7726 18.312 32.2766 17.704 31.0446 16.488C29.8286 15.272 29.2206 13.776 29.2206 12C29.2206 10.224 29.8286 8.728 31.0446 7.512C32.2766 6.296 33.7726 5.688 35.5326 5.688C37.2926 5.688 38.7886 6.296 40.0206 7.512C41.2526 8.728 41.8686 10.224 41.8686 12C41.8686 13.776 41.2526 15.272 40.0206 16.488ZM35.5326 16.272C36.7326 16.272 37.7406 15.864 38.5566 15.048C39.3726 14.232 39.7806 13.216 39.7806 12C39.7806 10.784 39.3726 9.768 38.5566 8.952C37.7406 8.136 36.7326 7.728 35.5326 7.728C34.3486 7.728 33.3486 8.136 32.5326 8.952C31.7166 9.768 31.3086 10.784 31.3086 12C31.3086 13.216 31.7166 14.232 32.5326 15.048C33.3486 15.864 34.3486 16.272 35.5326 16.272ZM46.4181 8.016C47.1061 6.528 48.3541 5.784 50.1621 5.784V7.968C49.1381 7.92 48.2581 8.192 47.5221 8.784C46.7861 9.376 46.4181 10.328 46.4181 11.64V18H44.3301V6H46.4181V8.016ZM59.0143 8.016H55.8223V14.52C55.8223 15.112 55.9343 15.536 56.1583 15.792C56.3983 16.032 56.7583 16.16 57.2383 16.176C57.7183 16.176 58.3103 16.16 59.0143 16.128V18C57.1903 18.24 55.8543 18.096 55.0063 17.568C54.1583 17.024 53.7343 16.008 53.7343 14.52V8.016H51.3583V6H53.7343V3.264L55.8223 2.64V6H59.0143V8.016ZM71.5647 4.368H64.8447V8.352H71.3727V11.52H64.8447V18H61.5327V1.2H71.5647V4.368ZM76.45 13.272C76.866 14.776 77.994 15.528 79.834 15.528C81.018 15.528 81.914 15.128 82.522 14.328L85.018 15.768C83.834 17.48 82.09 18.336 79.786 18.336C77.802 18.336 76.21 17.736 75.01 16.536C73.81 15.336 73.21 13.824 73.21 12C73.21 10.192 73.802 8.688 74.986 7.488C76.17 6.272 77.69 5.664 79.546 5.664C81.306 5.664 82.754 6.272 83.89 7.488C85.042 8.704 85.618 10.208 85.618 12C85.618 12.4 85.578 12.824 85.498 13.272H76.45ZM76.402 10.872H82.522C82.346 10.056 81.978 9.448 81.418 9.048C80.874 8.648 80.25 8.448 79.546 8.448C78.714 8.448 78.026 8.664 77.482 9.096C76.938 9.512 76.578 10.104 76.402 10.872ZM94.4513 5.664C95.7633 5.664 96.8433 6.104 97.6913 6.984C98.5553 7.864 98.9873 9.08 98.9873 10.632V18H95.8913V11.016C95.8913 10.216 95.6753 9.608 95.2433 9.192C94.8113 8.76 94.2353 8.544 93.5153 8.544C92.7153 8.544 92.0753 8.792 91.5953 9.288C91.1153 9.784 90.8753 10.528 90.8753 11.52V18H87.7793V6H90.8753V7.344C91.6273 6.224 92.8193 5.664 94.4513 5.664ZM103.167 4.56C102.655 4.56 102.207 4.376 101.823 4.008C101.455 3.624 101.271 3.176 101.271 2.664C101.271 2.152 101.455 1.704 101.823 1.32C102.207 0.935999 102.655 0.743999 103.167 0.743999C103.695 0.743999 104.143 0.935999 104.511 1.32C104.895 1.704 105.087 2.152 105.087 2.664C105.087 3.176 104.895 3.624 104.511 4.008C104.143 4.376 103.695 4.56 103.167 4.56ZM101.631 18V6H104.727V18H101.631ZM118.625 18H115.049L112.457 14.352L109.841 18H106.265L110.657 11.88L106.457 6H110.033L112.457 9.384L114.881 6H118.433L114.233 11.856L118.625 18Z" fill="white"/>
</svg>
