<svg width="48" height="48" viewBox="0 0 48 48" fill="none" xmlns="http://www.w3.org/2000/svg">
<path d="M32.5 16C32.5 16.8284 33.1716 17.5 34 17.5C34.8284 17.5 35.5 16.8284 35.5 16H32.5ZM36.5 24C36.5 24.8284 37.1716 25.5 38 25.5C38.8284 25.5 39.5 24.8284 39.5 24H36.5ZM39.5 32C39.5 31.1716 38.8284 30.5 38 30.5C37.1716 30.5 36.5 31.1716 36.5 32H39.5ZM9.5 12C9.5 11.1716 8.82843 10.5 8 10.5C7.17157 10.5 6.5 11.1716 6.5 12H9.5ZM35.5 16V10H32.5V16H35.5ZM35.5 10C35.5 8.067 33.933 6.5 32 6.5V9.5C32.2761 9.5 32.5 9.72386 32.5 10H35.5ZM32 6.5H12V9.5H32V6.5ZM12 6.5C8.96243 6.5 6.5 8.96243 6.5 12H9.5C9.5 10.6193 10.6193 9.5 12 9.5V6.5ZM6.5 12C6.5 15.0376 8.96243 17.5 12 17.5V14.5C10.6193 14.5 9.5 13.3807 9.5 12H6.5ZM12 17.5H36V14.5H12V17.5ZM36 17.5C36.2761 17.5 36.5 17.7239 36.5 18H39.5C39.5 16.067 37.933 14.5 36 14.5V17.5ZM36.5 18V24H39.5V18H36.5ZM36.5 32V38H39.5V32H36.5ZM36.5 38C36.5 38.2761 36.2761 38.5 36 38.5V41.5C37.933 41.5 39.5 39.933 39.5 38H36.5ZM36 38.5H12V41.5H36V38.5ZM12 38.5C10.6193 38.5 9.5 37.3807 9.5 36H6.5C6.5 39.0376 8.96243 41.5 12 41.5V38.5ZM9.5 36V12H6.5V36H9.5Z" fill="#141718"/>
<path d="M40 24V32H32C29.7909 32 28 30.2091 28 28C28 25.7909 29.7909 24 32 24H40" stroke="#141718" stroke-width="3" stroke-linecap="round" stroke-linejoin="round"/>
</svg>
