<svg width="48" height="48" viewBox="0 0 48 48" fill="none" xmlns="http://www.w3.org/2000/svg">
<circle cx="14" cy="34" r="4" stroke="#141718" stroke-width="3" stroke-linecap="round" stroke-linejoin="round"/>
<circle cx="34" cy="34" r="4" stroke="#141718" stroke-width="3" stroke-linecap="round" stroke-linejoin="round"/>
<path d="M10 35.5C10.8284 35.5 11.5 34.8284 11.5 34C11.5 33.1716 10.8284 32.5 10 32.5V35.5ZM6 34H4.5C4.5 34.8284 5.17157 35.5 6 35.5V34ZM7.5 26C7.5 25.1716 6.82843 24.5 6 24.5C5.17157 24.5 4.5 25.1716 4.5 26H7.5ZM4 8.5C3.17157 8.5 2.5 9.17157 2.5 10C2.5 10.8284 3.17157 11.5 4 11.5V8.5ZM26 10H27.5C27.5 9.17157 26.8284 8.5 26 8.5V10ZM24.5 34C24.5 34.8284 25.1716 35.5 26 35.5C26.8284 35.5 27.5 34.8284 27.5 34H24.5ZM18 32.5C17.1716 32.5 16.5 33.1716 16.5 34C16.5 34.8284 17.1716 35.5 18 35.5V32.5ZM30 35.5C30.8284 35.5 31.5 34.8284 31.5 34C31.5 33.1716 30.8284 32.5 30 32.5V35.5ZM38 32.5C37.1716 32.5 36.5 33.1716 36.5 34C36.5 34.8284 37.1716 35.5 38 35.5V32.5ZM42 34V35.5C42.8284 35.5 43.5 34.8284 43.5 34H42ZM42 22H43.5C43.5 21.1716 42.8284 20.5 42 20.5V22ZM26 20.5C25.1716 20.5 24.5 21.1716 24.5 22C24.5 22.8284 25.1716 23.5 26 23.5V20.5ZM26 10.5C25.1716 10.5 24.5 11.1716 24.5 12C24.5 12.8284 25.1716 13.5 26 13.5V10.5ZM36 12L37.2862 11.2283C37.0152 10.7764 36.5269 10.5 36 10.5V12ZM40.7138 22.7717C41.14 23.4821 42.0614 23.7125 42.7717 23.2862C43.4821 22.86 43.7125 21.9386 43.2862 21.2283L40.7138 22.7717ZM10 32.5H6V35.5H10V32.5ZM7.5 34V26H4.5V34H7.5ZM4 11.5H26V8.5H4V11.5ZM24.5 10V34H27.5V10H24.5ZM18 35.5H30V32.5H18V35.5ZM38 35.5H42V32.5H38V35.5ZM43.5 34V22H40.5V34H43.5ZM42 20.5H26V23.5H42V20.5ZM26 13.5H36V10.5H26V13.5ZM34.7138 12.7717L40.7138 22.7717L43.2862 21.2283L37.2862 11.2283L34.7138 12.7717Z" fill="#141718"/>
<path d="M6 18H14" stroke="#141718" stroke-width="3" stroke-linecap="round" stroke-linejoin="round"/>
</svg>
